<?xml version="1.0" encoding="utf-8"?>
<!-- Generator: Adobe Illustrator 15.0.2, SVG Export Plug-In . SVG Version: 6.00 Build 0)  -->
<!DOCTYPE svg PUBLIC "-//W3C//DTD SVG 1.1//EN" "http://www.w3.org/Graphics/SVG/1.1/DTD/svg11.dtd">
<svg version="1.1" id="Layer_1" xmlns:svg="http://www.w3.org/2000/svg"
	 xmlns="http://www.w3.org/2000/svg" xmlns:xlink="http://www.w3.org/1999/xlink" x="0px" y="0px" width="86.571px" height="88px"
	 viewBox="0 0 86.571 88" enable-background="new 0 0 86.571 88" xml:space="preserve">
<title>Layer 1</title>
<path id="svg_53" fill="#0078D6" d="M39.658,7.549c15.615-2.389,31.259-4.64,46.903-6.811c0.01,13.711,0,27.412,0.01,41.123
	c-15.634,0.06-31.269,0.297-46.913,0.347C39.648,30.648,39.648,19.099,39.658,7.549L39.658,7.549z"/>
<path id="svg_52" fill="#0078D6" d="M0.002,13.081c11.758-1.814,23.565-3.38,35.373-4.858c0.01,11.372,0.01,22.733,0.02,34.104
	c-11.798-0.01-23.595,0.168-35.393,0.139V13.081L0.002,13.081z"/>
<path id="svg_41" fill="#0078D6" d="M0.002,46.045c11.788-0.04,23.576,0.148,35.363,0.129c0,11.4,0.03,22.802,0.01,34.203
	C23.598,78.631,11.8,77.104,0.002,75.509V46.045z"/>
<path id="svg_40" fill="#0078D6" d="M39.589,46.5c15.664,0,31.318,0,46.972,0c0.02,13.672,0,27.344,0,41.024
	c-15.614-2.34-31.259-4.511-46.903-6.633C39.639,69.432,39.609,57.971,39.589,46.5z"/>
</svg>
